<svg id="Layer_1" data-name="Layer 1" xmlns="http://www.w3.org/2000/svg" viewBox="0 0 24 24" stroke-width="1.5" width="24" height="24" color="#000000"><defs><style>.cls-637b7b44f95e86b59c579f44-1{fill:none;stroke:currentColor;stroke-miterlimit:10;}</style></defs><path class="cls-637b7b44f95e86b59c579f44-1" d="M1.5,23.48h0A10.5,10.5,0,0,1,12,13h0a10.5,10.5,0,0,1,10.5,10.5h0"></path><polyline class="cls-637b7b44f95e86b59c579f44-1" points="8.17 13.7 5.32 15.84 7.23 17.75 7.23 20.61 12 22.52 16.77 20.61 16.77 17.75 18.68 15.84 15.83 13.7 15.82 13.69"></polyline><line class="cls-637b7b44f95e86b59c579f44-1" x1="12" y1="22.52" x2="9.25" y2="13.35"></line><line class="cls-637b7b44f95e86b59c579f44-1" x1="14.75" y1="13.35" x2="12" y2="22.52"></line><rect class="cls-637b7b44f95e86b59c579f44-1" x="7.23" y="1.52" width="9.55" height="11.45" rx="4.77"></rect><path class="cls-637b7b44f95e86b59c579f44-1" d="M10.09,4.39h0A3.46,3.46,0,0,0,13.18,6.3h3.59"></path></svg>